<?xml version="1.0" encoding="UTF-8" standalone="no"?>
<svg
   xmlns:dc="http://purl.org/dc/elements/1.1/"
   xmlns:cc="http://creativecommons.org/ns#"
   xmlns:rdf="http://www.w3.org/1999/02/22-rdf-syntax-ns#"
   xmlns:svg="http://www.w3.org/2000/svg"
   xmlns="http://www.w3.org/2000/svg"
   xmlns:sodipodi="http://sodipodi.sourceforge.net/DTD/sodipodi-0.dtd"
   xmlns:inkscape="http://www.inkscape.org/namespaces/inkscape"
   viewBox="0 0 64 64"
   width="512px"
   height="512px"
   version="1.1"
   id="svg51"
   sodipodi:docname="coding-colorful.svg"
   inkscape:version="0.92.4 (5da689c313, 2019-01-14)">
  <metadata
     id="metadata57">
    <rdf:RDF>
      <cc:Work
         rdf:about="">
        <dc:format>image/svg+xml</dc:format>
        <dc:type
           rdf:resource="http://purl.org/dc/dcmitype/StillImage" />
      </cc:Work>
    </rdf:RDF>
  </metadata>
  <defs
     id="defs55" />
  <sodipodi:namedview
     pagecolor="#ffffff"
     bordercolor="#666666"
     borderopacity="1"
     objecttolerance="10"
     gridtolerance="10"
     guidetolerance="10"
     inkscape:pageopacity="0"
     inkscape:pageshadow="2"
     inkscape:window-width="1366"
     inkscape:window-height="704"
     id="namedview53"
     showgrid="false"
     inkscape:zoom="0.4609375"
     inkscape:cx="256"
     inkscape:cy="256"
     inkscape:window-x="0"
     inkscape:window-y="27"
     inkscape:window-maximized="1"
     inkscape:current-layer="svg51" />
  <linearGradient
     id="JXxU80Xmq4GC5pRDGrxJsa"
     x1="16"
     x2="16"
     y1="11.333"
     y2="16.896"
     gradientUnits="userSpaceOnUse"
     spreadMethod="reflect">
    <stop
       offset="0"
       stop-color="#6dc7ff"
       id="stop2" />
    <stop
       offset="1"
       stop-color="#e6abff"
       id="stop4" />
  </linearGradient>
  <path
     fill="url(#JXxU80Xmq4GC5pRDGrxJsa)"
     d="M16,16c-1.103,0-2-0.897-2-2s0.897-2,2-2s2,0.897,2,2S17.103,16,16,16z M16,13.999V14V13.999z"
     id="path7"
     style="fill:#ffffff" />
  <linearGradient
     id="JXxU80Xmq4GC5pRDGrxJsb"
     x1="22"
     x2="22"
     y1="11.333"
     y2="16.896"
     gradientUnits="userSpaceOnUse"
     spreadMethod="reflect">
    <stop
       offset="0"
       stop-color="#6dc7ff"
       id="stop9" />
    <stop
       offset="1"
       stop-color="#e6abff"
       id="stop11" />
  </linearGradient>
  <path
     fill="url(#JXxU80Xmq4GC5pRDGrxJsb)"
     d="M22,16c-1.103,0-2-0.897-2-2s0.897-2,2-2s2,0.897,2,2S23.103,16,22,16z M22,13.999V14V13.999z"
     id="path14"
     style="fill:#ffffff" />
  <linearGradient
     id="JXxU80Xmq4GC5pRDGrxJsc"
     x1="28"
     x2="28"
     y1="11.333"
     y2="16.896"
     gradientUnits="userSpaceOnUse"
     spreadMethod="reflect">
    <stop
       offset="0"
       stop-color="#6dc7ff"
       id="stop16" />
    <stop
       offset="1"
       stop-color="#e6abff"
       id="stop18" />
  </linearGradient>
  <path
     fill="url(#JXxU80Xmq4GC5pRDGrxJsc)"
     d="M28,16c-1.103,0-2-0.897-2-2s0.897-2,2-2s2,0.897,2,2S29.103,16,28,16z M28,13.999V14V13.999z"
     id="path21"
     style="fill:#ffffff" />
  <linearGradient
     id="JXxU80Xmq4GC5pRDGrxJsd"
     x1="32"
     x2="32"
     y1="8"
     y2="57.847"
     gradientUnits="userSpaceOnUse"
     spreadMethod="reflect">
    <stop
       offset="0"
       stop-color="#1a6dff"
       id="stop23" />
    <stop
       offset="1"
       stop-color="#c822ff"
       id="stop25" />
  </linearGradient>
  <path
     fill="url(#JXxU80Xmq4GC5pRDGrxJsd)"
     d="M51,8H13c-2.757,0-5,2.243-5,5v38c0,2.757,2.243,5,5,5h38c2.757,0,5-2.243,5-5V13 C56,10.243,53.757,8,51,8z M13,10h38c1.654,0,3,1.346,3,3v5H10v-5C10,11.346,11.346,10,13,10z M51,54H13c-1.654,0-3-1.346-3-3V20h44 v31C54,52.654,52.654,54,51,54z"
     id="path28"
     style="fill:#ffffff" />
  <linearGradient
     id="JXxU80Xmq4GC5pRDGrxJse"
     x1="19.92"
     x2="19.92"
     y1="8"
     y2="57.847"
     gradientUnits="userSpaceOnUse"
     spreadMethod="reflect">
    <stop
       offset="0"
       stop-color="#1a6dff"
       id="stop30" />
    <stop
       offset="1"
       stop-color="#c822ff"
       id="stop32" />
  </linearGradient>
  <path
     fill="url(#JXxU80Xmq4GC5pRDGrxJse)"
     d="M23.171,28.248l-7.137,6.245c-0.435,0.38-0.684,0.93-0.684,1.508s0.249,1.127,0.684,1.508 l7.137,6.244l1.317-1.505l-7.137-6.251l7.137-6.244L23.171,28.248z"
     id="path35"
     style="fill:#ffffff" />
  <linearGradient
     id="JXxU80Xmq4GC5pRDGrxJsf"
     x1="44.349"
     x2="44.349"
     y1="8"
     y2="57.847"
     gradientUnits="userSpaceOnUse"
     spreadMethod="reflect">
    <stop
       offset="0"
       stop-color="#1a6dff"
       id="stop37" />
    <stop
       offset="1"
       stop-color="#c822ff"
       id="stop39" />
  </linearGradient>
  <path
     fill="url(#JXxU80Xmq4GC5pRDGrxJsf)"
     d="M41.529,28.285l-1.397,1.431l6.434,6.288l-6.434,6.281l1.397,1.431l6.434-6.281 c0.389-0.38,0.604-0.89,0.604-1.434s-0.215-1.054-0.604-1.434L41.529,28.285z"
     id="path42"
     style="fill:#ffffff" />
  <linearGradient
     id="JXxU80Xmq4GC5pRDGrxJsg"
     x1="32.5"
     x2="32.5"
     y1="8"
     y2="57.847"
     gradientUnits="userSpaceOnUse"
     spreadMethod="reflect">
    <stop
       offset="0"
       stop-color="#1a6dff"
       id="stop44" />
    <stop
       offset="1"
       stop-color="#c822ff"
       id="stop46" />
  </linearGradient>
  <path
     fill="url(#JXxU80Xmq4GC5pRDGrxJsg)"
     d="M27.059 48.661L28.941 49.339 37.941 24.339 36.059 23.661z"
     id="path49"
     style="fill:#ffffff" />
</svg>
