<?xml version="1.0" encoding="UTF-8" standalone="no"?>
<svg
   xmlns:dc="http://purl.org/dc/elements/1.1/"
   xmlns:cc="http://creativecommons.org/ns#"
   xmlns:rdf="http://www.w3.org/1999/02/22-rdf-syntax-ns#"
   xmlns:svg="http://www.w3.org/2000/svg"
   xmlns="http://www.w3.org/2000/svg"
   xmlns:sodipodi="http://sodipodi.sourceforge.net/DTD/sodipodi-0.dtd"
   xmlns:inkscape="http://www.inkscape.org/namespaces/inkscape"
   viewBox="0 0 64 64"
   width="512px"
   height="512px"
   version="1.1"
   id="svg51"
   sodipodi:docname="design-colorful.svg"
   inkscape:version="0.92.4 (5da689c313, 2019-01-14)">
  <metadata
     id="metadata57">
    <rdf:RDF>
      <cc:Work
         rdf:about="">
        <dc:format>image/svg+xml</dc:format>
        <dc:type
           rdf:resource="http://purl.org/dc/dcmitype/StillImage" />
      </cc:Work>
    </rdf:RDF>
  </metadata>
  <defs
     id="defs55" />
  <sodipodi:namedview
     pagecolor="#ffffff"
     bordercolor="#666666"
     borderopacity="1"
     objecttolerance="10"
     gridtolerance="10"
     guidetolerance="10"
     inkscape:pageopacity="0"
     inkscape:pageshadow="2"
     inkscape:window-width="640"
     inkscape:window-height="480"
     id="namedview53"
     showgrid="false"
     inkscape:zoom="0.4609375"
     inkscape:cx="256"
     inkscape:cy="324.05553"
     inkscape:window-x="0"
     inkscape:window-y="27"
     inkscape:window-maximized="0"
     inkscape:current-layer="svg51" />
  <linearGradient
     id="q5aziAgq4QYnEikT14eVSa"
     x1="38"
     x2="38"
     y1="25.5"
     y2="32.51"
     gradientUnits="userSpaceOnUse"
     spreadMethod="reflect">
    <stop
       offset="0"
       stop-color="#6dc7ff"
       id="stop2" />
    <stop
       offset="1"
       stop-color="#e6abff"
       id="stop4" />
  </linearGradient>
  <path
     fill="url(#q5aziAgq4QYnEikT14eVSa)"
     d="M31,27v4c0,0.552,0.448,1,1,1h1.532c0.297,0,3.5-3.638,3.5-3.638 c0.428-0.514,1.229-0.471,1.6,0.085c0,0,3.368,3.552,2.903,3.552H44c0.552,0,1-0.448,1-1v-4c0-0.552-0.448-1-1-1H32 C31.448,26,31,26.448,31,27z"
     id="path7"
     style="fill:#ffffff" />
  <linearGradient
     id="q5aziAgq4QYnEikT14eVSb"
     x1="32"
     x2="32"
     y1="5.167"
     y2="60.184"
     gradientUnits="userSpaceOnUse"
     spreadMethod="reflect">
    <stop
       offset="0"
       stop-color="#1a6dff"
       id="stop9" />
    <stop
       offset="1"
       stop-color="#c822ff"
       id="stop11" />
  </linearGradient>
  <path
     fill="url(#q5aziAgq4QYnEikT14eVSb)"
     d="M53,6H11C9.346,6,8,7.346,8,9v33v1v4c0,1.654,1.346,3,3,3h17v-2H11c-0.552,0-1-0.448-1-1 v-1.184C10.314,45.928,10.647,46,11,46h17v-2H11c-0.552,0-1-0.448-1-1v-1V16h44v23v4c0,0.552-0.448,1-1,1h-5v2h5 c0.353,0,0.686-0.072,1-0.184V47c0,0.552-0.448,1-1,1h-5v2h5c1.654,0,3-1.346,3-3v-4v-4V9C56,7.346,54.654,6,53,6z M28.382,8l3,6 h-4.764l-3-6H28.382z M10,9c0-0.552,0.448-1,1-1h10.382l3,6H10V9z M33.618,14l-3-6H53c0.552,0,1,0.448,1,1v5H33.618z"
     id="path14"
     style="fill:#ffffff" />
  <linearGradient
     id="q5aziAgq4QYnEikT14eVSc"
     x1="38"
     x2="38"
     y1="5.167"
     y2="60.184"
     gradientUnits="userSpaceOnUse"
     spreadMethod="reflect">
    <stop
       offset="0"
       stop-color="#1a6dff"
       id="stop16" />
    <stop
       offset="1"
       stop-color="#c822ff"
       id="stop18" />
  </linearGradient>
  <path
     fill="url(#q5aziAgq4QYnEikT14eVSc)"
     d="M48.047,39.268L45.869,36H47c1.103,0,2-0.897,2-2V24c0-1.103-0.897-2-2-2H29 c-1.103,0-2,0.897-2,2v10c0,1.103,0.897,2,2,2h1.131l-2.178,3.268c-0.705,1.058-0.666,2.45,0.097,3.464l2.037,2.717 C30.036,45.625,30,45.807,30,46v2c0,1.103,0.897,2,2,2v5c0,1.654,1.346,3,3,3h6c1.654,0,3-1.346,3-3v-5c1.103,0,2-0.897,2-2v-2 c0-0.193-0.036-0.375-0.087-0.551l2.036-2.715C48.713,41.718,48.752,40.325,48.047,39.268z M29,34V24h18v10h-2.465l-4.037-6.056 c-0.559-0.837-1.492-1.337-2.498-1.337s-1.939,0.5-2.498,1.337L31.465,34H29z M39,39c0,0.552-0.448,1-1,1s-1-0.448-1-1s0.448-1,1-1 S39,38.448,39,39z M42,55c0,0.552-0.448,1-1,1h-6c-0.552,0-1-0.448-1-1v-5h8V55z M32,48v-2h12l0.002,2H32z M46.351,41.532 l-1.894,2.526C44.31,44.023,44.158,44,44,44H32c-0.158,0-0.31,0.023-0.457,0.058l-1.895-2.527c-0.254-0.337-0.267-0.801-0.031-1.153 L37,29.303v6.882c-1.162,0.414-2,1.514-2,2.816c0,1.654,1.346,3,3,3s3-1.346,3-3c0-1.302-0.838-2.402-2-2.816v-6.882l7.383,11.074 C46.618,40.729,46.605,41.193,46.351,41.532z"
     id="path21"
     style="fill:#ffffff" />
  <linearGradient
     id="q5aziAgq4QYnEikT14eVSd"
     x1="18.5"
     x2="18.5"
     y1="5.167"
     y2="60.184"
     gradientUnits="userSpaceOnUse"
     spreadMethod="reflect">
    <stop
       offset="0"
       stop-color="#1a6dff"
       id="stop23" />
    <stop
       offset="1"
       stop-color="#c822ff"
       id="stop25" />
  </linearGradient>
  <path
     fill="url(#q5aziAgq4QYnEikT14eVSd)"
     d="M14 22H23V24H14z"
     id="path28"
     style="fill:#ffffff" />
  <linearGradient
     id="q5aziAgq4QYnEikT14eVSe"
     x1="18.5"
     x2="18.5"
     y1="5.167"
     y2="60.184"
     gradientUnits="userSpaceOnUse"
     spreadMethod="reflect">
    <stop
       offset="0"
       stop-color="#1a6dff"
       id="stop30" />
    <stop
       offset="1"
       stop-color="#c822ff"
       id="stop32" />
  </linearGradient>
  <path
     fill="url(#q5aziAgq4QYnEikT14eVSe)"
     d="M14 26H23V28H14z"
     id="path35"
     style="fill:#ffffff" />
  <linearGradient
     id="q5aziAgq4QYnEikT14eVSf"
     x1="18.5"
     x2="18.5"
     y1="5.167"
     y2="60.184"
     gradientUnits="userSpaceOnUse"
     spreadMethod="reflect">
    <stop
       offset="0"
       stop-color="#1a6dff"
       id="stop37" />
    <stop
       offset="1"
       stop-color="#c822ff"
       id="stop39" />
  </linearGradient>
  <path
     fill="url(#q5aziAgq4QYnEikT14eVSf)"
     d="M14 30H23V32H14z"
     id="path42"
     style="fill:#ffffff" />
  <linearGradient
     id="q5aziAgq4QYnEikT14eVSg"
     x1="18.5"
     x2="18.5"
     y1="5.167"
     y2="60.184"
     gradientUnits="userSpaceOnUse"
     spreadMethod="reflect">
    <stop
       offset="0"
       stop-color="#1a6dff"
       id="stop44" />
    <stop
       offset="1"
       stop-color="#c822ff"
       id="stop46" />
  </linearGradient>
  <path
     fill="url(#q5aziAgq4QYnEikT14eVSg)"
     d="M14 34H23V36H14z"
     id="path49"
     style="fill:#ffffff" />
</svg>
