<?xml version="1.0" encoding="UTF-8" standalone="no"?>
<svg
   xmlns:dc="http://purl.org/dc/elements/1.1/"
   xmlns:cc="http://creativecommons.org/ns#"
   xmlns:rdf="http://www.w3.org/1999/02/22-rdf-syntax-ns#"
   xmlns:svg="http://www.w3.org/2000/svg"
   xmlns="http://www.w3.org/2000/svg"
   xmlns:sodipodi="http://sodipodi.sourceforge.net/DTD/sodipodi-0.dtd"
   xmlns:inkscape="http://www.inkscape.org/namespaces/inkscape"
   viewBox="0 0 64 64"
   width="512px"
   height="512px"
   version="1.1"
   id="svg37"
   sodipodi:docname="launch-colorful.svg"
   inkscape:version="0.92.4 (5da689c313, 2019-01-14)">
  <metadata
     id="metadata43">
    <rdf:RDF>
      <cc:Work
         rdf:about="">
        <dc:format>image/svg+xml</dc:format>
        <dc:type
           rdf:resource="http://purl.org/dc/dcmitype/StillImage" />
      </cc:Work>
    </rdf:RDF>
  </metadata>
  <defs
     id="defs41" />
  <sodipodi:namedview
     pagecolor="#ffffff"
     bordercolor="#666666"
     borderopacity="1"
     objecttolerance="10"
     gridtolerance="10"
     guidetolerance="10"
     inkscape:pageopacity="0"
     inkscape:pageshadow="2"
     inkscape:window-width="640"
     inkscape:window-height="480"
     id="namedview39"
     showgrid="false"
     inkscape:zoom="0.4609375"
     inkscape:cx="256"
     inkscape:cy="256"
     inkscape:window-x="0"
     inkscape:window-y="27"
     inkscape:window-maximized="0"
     inkscape:current-layer="svg37" />
  <linearGradient
     id="_bx6DPggsXAqmrh29pKVua"
     x1="39.5"
     x2="39.5"
     y1="47.25"
     y2="50.627"
     gradientUnits="userSpaceOnUse"
     spreadMethod="reflect">
    <stop
       offset="0"
       stop-color="#6dc7ff"
       id="stop2" />
    <stop
       offset="1"
       stop-color="#e6abff"
       id="stop4" />
  </linearGradient>
  <path
     fill="url(#_bx6DPggsXAqmrh29pKVua)"
     d="M35 48H44V50H35z"
     id="path7"
     style="fill:#ffffff" />
  <linearGradient
     id="_bx6DPggsXAqmrh29pKVub"
     x1="24.5"
     x2="24.5"
     y1="47.25"
     y2="50.627"
     gradientUnits="userSpaceOnUse"
     spreadMethod="reflect">
    <stop
       offset="0"
       stop-color="#6dc7ff"
       id="stop9" />
    <stop
       offset="1"
       stop-color="#e6abff"
       id="stop11" />
  </linearGradient>
  <path
     fill="url(#_bx6DPggsXAqmrh29pKVub)"
     d="M20 48H29V50H20z"
     id="path14"
     style="fill:#ffffff" />
  <linearGradient
     id="_bx6DPggsXAqmrh29pKVuc"
     x1="32"
     x2="32"
     y1="20.5"
     y2="29"
     gradientUnits="userSpaceOnUse"
     spreadMethod="reflect">
    <stop
       offset="0"
       stop-color="#6dc7ff"
       id="stop16" />
    <stop
       offset="1"
       stop-color="#e6abff"
       id="stop18" />
  </linearGradient>
  <path
     fill="url(#_bx6DPggsXAqmrh29pKVuc)"
     d="M32 21A4 4 0 1 0 32 29A4 4 0 1 0 32 21Z"
     id="path21"
     style="fill:#ffffff" />
  <linearGradient
     id="_bx6DPggsXAqmrh29pKVud"
     x1="32"
     x2="32"
     y1="5.25"
     y2="59.333"
     gradientUnits="userSpaceOnUse"
     spreadMethod="reflect">
    <stop
       offset="0"
       stop-color="#1a6dff"
       id="stop23" />
    <stop
       offset="1"
       stop-color="#c822ff"
       id="stop25" />
  </linearGradient>
  <path
     fill="url(#_bx6DPggsXAqmrh29pKVud)"
     d="M52.534,35.12L44,26.586V24c0-6.282-4.121-18-12-18S20,17.718,20,24v2.586l-8.534,8.534 C10.521,36.065,10,37.322,10,38.658V45c0,1.654,1.346,3,3,3h5v1c0,1.654,1.346,3,3,3h1v1c0,1.654,1.346,3,3,3h4.184 c0.414,1.162,1.514,2,2.816,2s2.402-0.838,2.816-2H39c1.654,0,3-1.346,3-3v-1h1c1.654,0,3-1.346,3-3v-1h5c1.654,0,3-1.346,3-3 v-6.342C54,37.322,53.479,36.065,52.534,35.12z M32,8c6.203,0,10,10.359,10,16v18h-4v2h4v2h-7v-5c0-1.654-1.346-3-3-3s-3,1.346-3,3 v5h-7v-2h4v-2h-4V24C22,18.359,25.797,8,32,8z M13,46c-0.552,0-1-0.449-1-1v-6.342c0-0.802,0.313-1.557,0.88-2.124l3.12-3.12V44h2 V31.414l2-2V46h-2H13z M21,50c-0.552,0-1-0.449-1-1v-1h1h8v2H21z M24,53v-1h5v2h-4C24.448,54,24,53.551,24,53z M33,55 c0,0.551-0.448,1-1,1s-1-0.449-1-1V41c0-0.551,0.448-1,1-1s1,0.449,1,1V55z M40,53c0,0.551-0.448,1-1,1h-4v-2h5V53z M44,49 c0,0.551-0.448,1-1,1h-8v-2h8h1V49z M52,45c0,0.551-0.448,1-1,1h-5h-2V29.414l2,2V44h2V33.414l3.12,3.12 c0.567,0.567,0.88,1.322,0.88,2.124V45z"
     id="path28"
     style="fill:#ffffff" />
  <linearGradient
     id="_bx6DPggsXAqmrh29pKVue"
     x1="32"
     x2="32"
     y1="5.25"
     y2="59.333"
     gradientUnits="userSpaceOnUse"
     spreadMethod="reflect">
    <stop
       offset="0"
       stop-color="#1a6dff"
       id="stop30" />
    <stop
       offset="1"
       stop-color="#c822ff"
       id="stop32" />
  </linearGradient>
  <path
     fill="url(#_bx6DPggsXAqmrh29pKVue)"
     d="M32,30c2.757,0,5-2.243,5-5s-2.243-5-5-5s-5,2.243-5,5S29.243,30,32,30z M32,22 c1.654,0,3,1.346,3,3s-1.346,3-3,3s-3-1.346-3-3S30.346,22,32,22z"
     id="path35"
     style="fill:#ffffff" />
</svg>
